<svg width="130" height="34" viewBox="0 0 130 34" fill="none" xmlns="http://www.w3.org/2000/svg">
<g clip-path="url(#clip0_101348_226)">
<path d="M58.1295 8.54598L51.4622 25.7154H49.3398L42.4844 8.54598H44.1993C44.5698 8.54437 44.9321 8.65764 45.2389 8.871C45.5457 9.08436 45.7827 9.38787 45.9188 9.74181L50.5129 21.5116L54.8921 9.76022C55.0279 9.40112 55.2659 9.09237 55.575 8.87415C55.8841 8.65593 56.25 8.53835 56.625 8.53677L58.1295 8.54598ZM72.0373 19.2303V25.6694H74.6344V18.499C74.6344 17.1744 74.3523 16.1718 73.7926 15.514C73.4653 15.1707 73.0689 14.9051 72.631 14.7359C72.1932 14.5666 71.7246 14.4979 71.2582 14.5344C70.5685 14.5064 69.8824 14.6503 69.2586 14.9539C68.6348 15.2574 68.0918 15.7116 67.676 16.2776L67.5865 16.3971L67.5372 16.2591C67.3234 15.7202 66.9319 15.2758 66.4312 15.0035C65.8241 14.6781 65.1454 14.5197 64.461 14.5436C63.8404 14.5136 63.2209 14.6237 62.6461 14.8661C62.0714 15.1084 61.5552 15.4771 61.1341 15.9464L60.9908 16.1074V14.7276H58.3892V25.674H60.9908V18.2737C61.2382 17.8757 61.5843 17.5526 61.9935 17.3376C62.4027 17.1226 62.8603 17.0234 63.3192 17.0502C63.5754 17.0351 63.8319 17.0757 64.0718 17.1692C64.3117 17.2627 64.5298 17.4071 64.7118 17.593C65.0538 17.9986 65.2302 18.5242 65.2043 19.0601V25.6925H67.8059V19.2533C67.8059 19.1951 67.8059 19.0525 67.8059 18.8256C67.8059 18.6186 67.8059 18.4806 67.8059 18.4392C68.0211 18.0089 68.3551 17.6533 68.7661 17.4169C69.177 17.1805 69.6467 17.0737 70.1164 17.11C71.3836 17.0226 72.0373 17.7631 72.0373 19.2303ZM87.7497 8.54598C87.3752 8.54785 87.01 8.66556 86.7017 8.8838C86.3934 9.10205 86.1563 9.41069 86.0213 9.76943L81.6241 21.5116L77.0479 9.76022C76.91 9.40665 76.672 9.10372 76.3646 8.89054C76.0573 8.67736 75.6948 8.56375 75.324 8.5644H73.609L80.4644 25.7338H82.5913L89.2363 8.54598H87.7497ZM86.7204 25.6648L93.7683 8.5H96.2535L103.301 25.6648H101.466C101.13 25.6662 100.802 25.5645 100.524 25.3727C100.245 25.1808 100.029 24.9078 99.9028 24.5886L98.5595 21.2448H91.2608L89.9175 24.5932C89.7926 24.91 89.5784 25.1813 89.3023 25.3723C89.0263 25.5632 88.701 25.6651 88.3682 25.6648H86.7204ZM92.3399 18.5726H97.5117L94.9415 12.1335L92.3399 18.5726ZM108.205 25.3981L108.079 25.3245V30.6H105.478V14.7138H108.075V15.9096L108.218 15.7486C108.614 15.3361 109.096 15.0216 109.628 14.8287C110.284 14.5647 110.985 14.441 111.688 14.4654C112.315 14.4631 112.936 14.6005 113.506 14.868C114.076 15.1356 114.584 15.527 114.993 16.0154C115.9 17.2068 116.373 18.6868 116.33 20.1988C116.286 21.7108 115.729 23.1597 114.755 24.2942C114.229 24.8515 113.594 25.2889 112.892 25.5781C112.19 25.8673 111.436 26.0019 110.681 25.973C109.82 26.0084 108.966 25.8101 108.205 25.3981ZM108.119 22.804C108.817 23.246 109.624 23.4728 110.443 23.4572C110.862 23.4771 111.28 23.4054 111.67 23.2468C112.06 23.0882 112.413 22.8464 112.705 22.5373C113.284 21.8719 113.589 21.001 113.555 20.1088C113.599 19.267 113.319 18.4414 112.776 17.8091C112.5 17.5165 112.166 17.288 111.797 17.1388C111.428 16.9897 111.032 16.9234 110.636 16.9444C110.15 16.9441 109.671 17.055 109.233 17.2691C108.794 17.4831 108.408 17.7949 108.102 18.1817V22.7534L108.119 22.804ZM121.857 25.3981L121.736 25.3245V30.6H119.135V14.7138H121.736V15.9096L121.875 15.7486C122.274 15.337 122.757 15.0227 123.29 14.8287C123.945 14.5639 124.646 14.4402 125.35 14.4654C125.977 14.4637 126.597 14.6013 127.167 14.8689C127.738 15.1364 128.245 15.5275 128.654 16.0154C129.566 17.1411 130.044 18.5715 129.998 20.0352C130.022 20.8122 129.896 21.5864 129.628 22.3134C129.36 23.0403 128.954 23.7057 128.435 24.2713C127.907 24.8279 127.272 25.2648 126.571 25.5539C125.869 25.8431 125.116 25.978 124.36 25.95C123.493 25.9958 122.63 25.8055 121.857 25.3981ZM121.772 22.804C122.471 23.2462 123.279 23.4729 124.1 23.4572C124.519 23.4762 124.937 23.4041 125.327 23.2456C125.717 23.087 126.069 22.8457 126.362 22.5373C126.941 21.8719 127.246 21.001 127.212 20.1088C127.253 19.2675 126.974 18.4429 126.433 17.8091C126.157 17.517 125.823 17.2888 125.454 17.1397C125.085 16.9905 124.689 16.924 124.293 16.9444C123.807 16.9444 123.327 17.0554 122.888 17.2694C122.449 17.4834 122.062 17.795 121.754 18.1817V22.7534L121.772 22.804Z" fill="#111135"/>
<path d="M11.4094 2.31847L2.22685 11.6768C1.51328 12.4016 0.949371 13.2599 0.567322 14.2028C0.185272 15.1456 -0.0074285 16.1546 0.000219012 17.172C0.00786653 18.1894 0.21571 19.1953 0.61189 20.1323C1.00807 21.0694 1.58482 21.9191 2.30921 22.6331L11.6336 31.79C12.3598 32.5015 13.2191 33.0629 14.1622 33.442C15.1053 33.8211 16.1139 34.0106 17.1302 33.9995C18.1465 33.9885 19.1507 33.7771 20.0854 33.3776C21.0201 32.978 21.8669 32.3981 22.5776 31.6709L31.7601 22.3125C32.4736 21.5878 33.0375 20.7295 33.4196 19.7866C33.8016 18.8437 33.9944 17.8348 33.9867 16.8174C33.9791 15.8 33.7712 14.794 33.375 13.857C32.9788 12.92 32.4021 12.0703 31.6777 11.3563L29.445 9.16323L19.3794 19.9455C19.8397 20.3953 20.4595 20.644 21.1027 20.6371C21.746 20.6303 22.3603 20.3683 22.8109 19.9088L29.4862 12.5833L29.9894 13.0778C30.4871 13.5679 30.8833 14.1513 31.1554 14.7947C31.4275 15.4382 31.5702 16.129 31.5753 16.8276C31.5804 17.5263 31.4478 18.2191 31.1851 18.8664C30.9224 19.5137 30.5348 20.1029 30.0443 20.6002L20.8619 29.9586C20.3743 30.4582 19.7931 30.8568 19.1515 31.1314C18.5099 31.406 17.8205 31.5513 17.1227 31.5589C16.4249 31.5666 15.7324 31.4364 15.0849 31.176C14.4374 30.9155 13.8476 30.5298 13.3493 30.041L4.02492 20.8841C3.02102 19.8937 2.45128 18.5449 2.44098 17.1343C2.43069 15.7236 2.98069 14.3666 3.97002 13.3617L13.1525 4.00331C13.6401 3.50365 14.2213 3.10514 14.8629 2.83053C15.5045 2.55592 16.1939 2.41063 16.8917 2.40297C17.5895 2.39532 18.282 2.52546 18.9295 2.78593C19.577 3.0464 20.1667 3.43209 20.6651 3.92093L20.8435 4.09033L13.578 11.9698C13.1238 12.4256 12.8686 13.043 12.8686 13.6867C12.8686 14.3305 13.1238 14.9479 13.578 15.4037L24.2475 4.07658L22.3396 2.19942C20.8723 0.768824 18.8984 -0.0218501 16.8499 0.00045961C14.8015 0.0227693 12.8452 0.85625 11.4094 2.31847ZM32.7575 5.60118L32.6797 0.638157L27.8117 0.720593C27.1669 0.732637 26.553 0.999268 26.1039 1.46241C25.6548 1.92556 25.4068 2.5476 25.4142 3.19291L28.5528 3.13797L12.8872 19.5426C12.7746 19.6549 12.6852 19.7883 12.6243 19.9352C12.5633 20.0821 12.5319 20.2397 12.5319 20.3988C12.5319 20.5579 12.5633 20.7153 12.6243 20.8623C12.6852 21.0092 12.7746 21.1426 12.8872 21.2549C12.9994 21.3676 13.1327 21.457 13.2795 21.518C13.4264 21.579 13.5838 21.6105 13.7428 21.6105C13.9017 21.6105 14.0591 21.579 14.206 21.518C14.3528 21.457 14.4861 21.3676 14.5983 21.2549L30.3006 4.8137L30.3509 8.08731C30.6727 8.08436 30.9907 8.01747 31.2864 7.89052C31.5821 7.76357 31.8497 7.57908 32.0736 7.34778C32.2975 7.11648 32.4733 6.84297 32.5907 6.54314C32.7081 6.24331 32.7648 5.92312 32.7575 5.60118Z" fill="#111135"/>
</g>
<defs>
<clipPath id="clip0_101348_226">
<rect width="130" height="34" fill="white"/>
</clipPath>
</defs>
</svg>
