<svg width="85" height="22" viewBox="0 0 85 22" fill="none" xmlns="http://www.w3.org/2000/svg">
<g clip-path="url(#clip0_101519_13795)">
<path d="M38.0069 5.52975L33.6475 16.6394H32.2597L27.7773 5.52975H28.8987C29.1409 5.52871 29.3778 5.602 29.5784 5.74006C29.779 5.87812 29.9339 6.0745 30.0229 6.30352L33.0268 13.9193L35.8901 6.31544C35.9789 6.08308 36.1345 5.8833 36.3366 5.7421C36.5387 5.6009 36.7779 5.52481 37.0231 5.5238L38.0069 5.52975ZM47.1004 12.4431V16.6096H48.7985V11.97C48.7985 11.1129 48.6141 10.4641 48.2481 10.0385C48.0341 9.81634 47.7749 9.64449 47.4886 9.53498C47.2024 9.42547 46.896 9.38097 46.591 9.40459C46.14 9.38648 45.6914 9.47963 45.2836 9.67604C44.8757 9.87246 44.5207 10.1663 44.2488 10.5325L44.1903 10.6099L44.158 10.5206C44.0183 10.1719 43.7623 9.88431 43.4349 9.70816C43.038 9.49761 42.5942 9.39508 42.1467 9.41055C41.7409 9.39118 41.3358 9.46241 40.96 9.61923C40.5842 9.77604 40.2468 10.0146 39.9714 10.3182L39.8777 10.4224V9.5296H38.1767V16.6126H39.8777V11.8241C40.0394 11.5666 40.2657 11.3576 40.5333 11.2185C40.8009 11.0793 41.1001 11.0151 41.4001 11.0325C41.5676 11.0227 41.7353 11.049 41.8922 11.1095C42.0491 11.17 42.1916 11.2634 42.3106 11.3837C42.5343 11.6462 42.6496 11.9862 42.6327 12.333V16.6245H44.3337V12.458C44.3337 12.4203 44.3337 12.3281 44.3337 12.1812C44.3337 12.0473 44.3337 11.9581 44.3337 11.9313C44.4745 11.6528 44.6928 11.4227 44.9615 11.2698C45.2302 11.1168 45.5373 11.0477 45.8444 11.0712C46.673 11.0146 47.1004 11.4938 47.1004 12.4431ZM57.3739 5.52975C57.1291 5.53096 56.8903 5.60713 56.6887 5.74834C56.4871 5.88956 56.332 6.08927 56.2438 6.3214L53.3687 13.9193L50.3766 6.31544C50.2864 6.08666 50.1308 5.89064 49.9298 5.7527C49.7289 5.61477 49.4919 5.54125 49.2494 5.54167H48.1281L52.6104 16.6513H54.0011L58.3459 5.52975H57.3739ZM56.7009 16.6067L61.3092 5.5H62.9341L67.5423 16.6067H66.3419C66.1227 16.6076 65.9082 16.5417 65.7261 16.4176C65.544 16.2935 65.4026 16.1168 65.3202 15.9103L64.4418 13.7467H59.6696L58.7913 15.9132C58.7096 16.1183 58.5696 16.2938 58.3891 16.4173C58.2086 16.5409 57.9959 16.6068 57.7783 16.6067H56.7009ZM60.3752 12.0176H63.7567L62.0762 7.8511L60.3752 12.0176ZM70.7482 16.4341L70.6662 16.3864V19.8H68.9652V9.52066H70.6633V10.2944L70.757 10.1903C71.016 9.92338 71.3314 9.71984 71.6792 9.59507C72.1077 9.42419 72.566 9.34417 73.026 9.35995C73.436 9.35846 73.8416 9.44735 74.2146 9.6205C74.5876 9.79364 74.9192 10.0469 75.1867 10.3629C75.7799 11.1338 76.0892 12.0914 76.0608 13.0698C76.0325 14.0482 75.6683 14.9857 75.0315 15.7198C74.687 16.0804 74.2718 16.3634 73.8129 16.5506C73.3539 16.7377 72.8614 16.8247 72.3672 16.8061C71.8048 16.829 71.2463 16.7007 70.7482 16.4341ZM70.6926 14.7556C71.1488 15.0415 71.6762 15.1883 72.2121 15.1782C72.4859 15.1911 72.7594 15.1447 73.0142 15.042C73.2691 14.9394 73.4997 14.783 73.6906 14.583C74.0696 14.1524 74.2691 13.5889 74.2469 13.0116C74.2752 12.4669 74.0923 11.9326 73.7374 11.5235C73.5569 11.3342 73.3386 11.1863 73.0973 11.0898C72.8559 10.9933 72.597 10.9504 72.338 10.964C72.0206 10.9638 71.7071 11.0356 71.4205 11.1741C71.1338 11.3126 70.8811 11.5143 70.6809 11.7646V14.7228L70.6926 14.7556ZM79.6749 16.4341L79.5958 16.3864V19.8H77.8948V9.52066H79.5958V10.2944L79.6866 10.1903C79.9473 9.92397 80.2634 9.72056 80.6118 9.59507C81.0401 9.4237 81.4985 9.34366 81.9585 9.35995C82.3685 9.35885 82.7739 9.44793 83.1469 9.62104C83.5198 9.79416 83.8515 10.0472 84.1192 10.3629C84.7155 11.0913 85.028 12.0168 84.9975 12.964C85.0132 13.4667 84.931 13.9677 84.7557 14.4381C84.5803 14.9085 84.3153 15.339 83.9757 15.7049C83.6309 16.0651 83.2157 16.3478 82.7568 16.5349C82.2979 16.722 81.8056 16.8093 81.3115 16.7912C80.7445 16.8208 80.1799 16.6976 79.6749 16.4341ZM79.6193 14.7556C80.0765 15.0416 80.6049 15.1883 81.1417 15.1782C81.4155 15.1905 81.6887 15.1438 81.9436 15.0412C82.1984 14.9387 82.429 14.7825 82.6202 14.583C82.9992 14.1524 83.1987 13.5889 83.1765 13.0116C83.203 12.4672 83.0203 11.9336 82.667 11.5235C82.4863 11.3345 82.268 11.1868 82.0267 11.0904C81.7853 10.9939 81.5266 10.9508 81.2676 10.964C80.9498 10.964 80.636 11.0359 80.3489 11.1743C80.0618 11.3128 79.8085 11.5144 79.6075 11.7646V14.7228L79.6193 14.7556Z" fill="#F3F0FD"/>
<path d="M7.45998 1.50019L1.45602 7.55557C0.989455 8.02454 0.620743 8.57993 0.370941 9.19003C0.121139 9.80012 -0.0048571 10.453 0.0001432 11.1113C0.0051435 11.7696 0.141041 12.4205 0.400082 13.0268C0.659123 13.6331 1.03623 14.183 1.50986 14.6449L7.60656 20.57C8.08142 21.0304 8.64324 21.3936 9.2599 21.6389C9.87657 21.8843 10.536 22.0069 11.2005 21.9997C11.8651 21.9926 12.5216 21.8558 13.1328 21.5972C13.7439 21.3387 14.2976 20.9635 14.7623 20.4929L20.7662 14.4375C21.2328 13.9686 21.6015 13.4132 21.8513 12.8031C22.1011 12.193 22.2271 11.5402 22.2221 10.8818C22.2171 10.2235 22.0812 9.57259 21.8221 8.96628C21.5631 8.35998 21.186 7.81017 20.7124 7.34821L19.2525 5.92915L12.6712 12.9059C12.9721 13.1969 13.3773 13.3579 13.7979 13.3534C14.2185 13.349 14.6202 13.1795 14.9148 12.8822L19.2794 8.14215L19.6085 8.46212C19.9339 8.77923 20.1929 9.15674 20.3708 9.57307C20.5488 9.98941 20.642 10.4364 20.6454 10.8885C20.6487 11.3405 20.562 11.7888 20.3903 12.2077C20.2185 12.6265 19.965 13.0078 19.6444 13.3295L13.6404 19.385C13.3217 19.7083 12.9417 19.9661 12.5221 20.1438C12.1026 20.3215 11.6518 20.4155 11.1956 20.4205C10.7393 20.4254 10.2866 20.3412 9.86321 20.1727C9.43985 20.0041 9.05422 19.7546 8.72837 19.4383L2.63168 13.5132C1.97528 12.8724 1.60276 11.9997 1.59603 11.0869C1.5893 10.1741 1.94891 9.29605 2.59578 8.6458L8.59974 2.59038C8.9185 2.26707 9.29853 2.00921 9.71805 1.83152C10.1376 1.65383 10.5883 1.55982 11.0446 1.55486C11.5009 1.54991 11.9536 1.63412 12.377 1.80266C12.8003 1.9712 13.1859 2.22076 13.5118 2.53707L13.6285 2.64668L8.87795 7.74518C8.58092 8.04008 8.41411 8.4396 8.41411 8.85613C8.41411 9.27265 8.58092 9.67218 8.87795 9.96708L15.8541 2.63779L14.6067 1.42316C13.6473 0.497474 12.3567 -0.0141383 11.0173 0.000297395C9.67788 0.0147331 8.39881 0.554044 7.45998 1.50019ZM21.4184 3.62429L21.3675 0.412925L18.1845 0.466266C17.7629 0.474059 17.3616 0.646585 17.0679 0.946267C16.7743 1.24595 16.6122 1.64845 16.617 2.066L18.6692 2.03045L8.42623 12.6452C8.3526 12.7179 8.29418 12.8042 8.25432 12.8993C8.21446 12.9943 8.19396 13.0963 8.19396 13.1992C8.19396 13.3021 8.21446 13.404 8.25432 13.4991C8.29418 13.5942 8.3526 13.6805 8.42623 13.7532C8.4996 13.8261 8.58679 13.8839 8.68278 13.9234C8.77878 13.9629 8.88171 13.9832 8.98566 13.9832C9.0896 13.9832 9.19252 13.9629 9.28852 13.9234C9.38451 13.8839 9.4717 13.8261 9.54507 13.7532L19.8119 3.11475L19.8448 5.23296C20.0552 5.23105 20.2631 5.18778 20.4565 5.10563C20.6499 5.02349 20.8248 4.90411 20.9712 4.75445C21.1176 4.60478 21.2325 4.4278 21.3093 4.2338C21.386 4.03979 21.4231 3.83261 21.4184 3.62429Z" fill="#F3F0FD"/>
</g>
<defs>
<clipPath id="clip0_101519_13795">
<rect width="85" height="22" fill="white"/>
</clipPath>
</defs>
</svg>
