<svg width="32" height="24" viewBox="0 0 32 24" fill="none" xmlns="http://www.w3.org/2000/svg">
<rect width="32" height="24" rx="6" fill="#00ADC3"/>
<path fill-rule="evenodd" clip-rule="evenodd" d="M3.04688 3.9922C3.04688 3.5554 3.4004 3.2002 3.80878 3.2002C4.22935 3.2002 4.57068 3.5458 4.57068 3.9922V7.2082C4.57068 7.645 4.21716 8.0002 3.80878 8.0002C3.38821 8.0002 3.04688 7.6546 3.04688 7.2082V3.9922ZM4.57068 7.1922C4.57068 6.7554 4.92421 6.4002 5.33259 6.4002C5.75316 6.4002 6.09449 6.7458 6.09449 7.1922V10.4082C6.09449 10.845 5.74097 11.2002 5.33259 11.2002C4.91202 11.2002 4.57068 10.8546 4.57068 10.4082V7.1922ZM4.57068 13.5922C4.57068 13.1554 4.92421 12.8002 5.33259 12.8002C5.75316 12.8002 6.09449 13.1458 6.09449 13.5922V16.8082C6.09449 17.245 5.74097 17.6002 5.33259 17.6002C4.91202 17.6002 4.57068 17.2546 4.57068 16.8082V13.5922ZM3.04688 16.7922C3.04688 16.3554 3.4004 16.0002 3.80878 16.0002C4.22935 16.0002 4.57068 16.3458 4.57068 16.7922V20.0082C4.57068 20.445 4.21716 20.8002 3.80878 20.8002C3.38821 20.8002 3.04688 20.4546 3.04688 20.0082V16.7922ZM3.04688 10.4002C3.04688 9.9586 3.4004 9.6002 3.80878 9.6002C4.22935 9.6002 4.57068 9.9714 4.57068 10.4002C4.57068 10.8418 4.21716 11.2002 3.80878 11.2002C3.38821 11.2002 3.04688 10.829 3.04688 10.4002ZM4.57068 4.0002C4.57068 3.5586 4.92421 3.2002 5.33259 3.2002C5.75316 3.2002 6.09449 3.5714 6.09449 4.0002C6.09449 4.4418 5.74097 4.8002 5.33259 4.8002C4.91202 4.8002 4.57068 4.429 4.57068 4.0002ZM3.04688 12.0002C3.04688 11.5586 3.4004 11.2002 3.80878 11.2002C4.22935 11.2002 4.57068 11.5714 4.57068 12.0002C4.57068 12.4418 4.21716 12.8002 3.80878 12.8002C3.38821 12.8002 3.04688 12.429 3.04688 12.0002ZM4.57068 20.0002C4.57068 19.5586 4.92421 19.2002 5.33259 19.2002C5.75316 19.2002 6.09449 19.5714 6.09449 20.0002C6.09449 20.4418 5.74097 20.8002 5.33259 20.8002C4.91202 20.8002 4.57068 20.429 4.57068 20.0002ZM3.04688 13.6002C3.04688 13.1586 3.4004 12.8002 3.80878 12.8002C4.22935 12.8002 4.57068 13.1714 4.57068 13.6002C4.57068 14.0418 4.21716 14.4002 3.80878 14.4002C3.38821 14.4002 3.04688 14.029 3.04688 13.6002Z" fill="#FFED29"/>
<path d="M17.5244 14.3999C19.6283 14.3999 21.3339 12.609 21.3339 10.3999C21.3339 8.19076 19.6283 6.3999 17.5244 6.3999C15.4204 6.3999 13.7148 8.19076 13.7148 10.3999C13.7148 12.609 15.4204 14.3999 17.5244 14.3999Z" fill="#FFED29"/>
<path fill-rule="evenodd" clip-rule="evenodd" d="M12.1914 11.2002L13.7152 14.4002L17.5247 16.0002L21.3343 14.4002L22.8581 11.2002V16.0002L17.5247 17.6002L12.1914 16.0002V11.2002Z" fill="#FFED29"/>
</svg>
