<svg width="139" height="139" viewBox="0 0 139 139" fill="none" xmlns="http://www.w3.org/2000/svg">
<path fill-rule="evenodd" clip-rule="evenodd" d="M12.8538 50.5026C14.0956 50.4951 17.7862 50.1627 19.3494 55.4387C20.4025 58.9927 22.0799 64.8143 24.3817 72.9035H25.3191C27.7876 64.3753 29.4833 58.5537 30.4062 55.4387C31.9858 50.1078 35.9347 50.5027 37.5142 50.5027L49.7008 50.5027V88.4117H37.2799V66.0713H36.447L29.523 88.4117H20.1778L13.2538 66.0547H12.4209V88.4117H0V50.5027L12.8538 50.5026ZM67.5369 50.5027V72.8597H68.5278L76.9502 54.4757C78.5852 50.8172 82.0698 50.5027 82.0698 50.5027H94.0895V88.4118H81.4092V66.0547H80.4183L72.161 84.4388C70.526 88.0807 66.8763 88.4118 66.8763 88.4118H54.8566V50.5027H67.5369ZM137.918 68.5173C136.149 73.5296 130.595 77.1192 124.445 77.1192H111.147V88.4118H99.0891V68.5173H137.918Z" fill="#0F754E"/>
<path fill-rule="evenodd" clip-rule="evenodd" d="M125.027 50.5027H98.457C99.0894 58.9425 106.358 66.1676 113.882 66.1676H138.756C140.192 59.1531 135.25 50.5027 125.027 50.5027Z" fill="url(#paint0_linear_101126_10143)"/>
<defs>
<linearGradient id="paint0_linear_101126_10143" x1="139" y1="60.3566" x2="98.457" y2="60.3566" gradientUnits="userSpaceOnUse">
<stop stop-color="#1F5CD7"/>
<stop offset="1" stop-color="#02AEFF"/>
</linearGradient>
</defs>
</svg>
