<svg width="139" height="139" viewBox="0 0 139 139" fill="none" xmlns="http://www.w3.org/2000/svg">
<path d="M68.8238 47.7597L59.5374 91.1753H48.3049L57.5922 47.7597H68.8238ZM116.078 75.7937L121.99 59.4902L125.392 75.7937H116.078ZM128.614 91.1753H139L129.926 47.7597H120.346C118.187 47.7597 116.367 49.0116 115.561 50.9421L98.7082 91.1753H110.504L112.846 84.6914H127.254L128.614 91.1753ZM99.2931 77.0016C99.3419 65.5435 83.4535 64.9088 83.56 59.789C83.5941 58.2335 85.0784 56.5764 88.3223 56.1526C89.9306 55.9456 94.3687 55.7776 99.3995 58.0958L101.367 48.8856C98.6652 47.9081 95.188 46.9668 90.8611 46.9668C79.7575 46.9668 71.9466 52.8648 71.8841 61.3173C71.8128 67.5677 77.4637 71.0528 81.7124 73.1347C86.093 75.2625 87.5606 76.6266 87.5391 78.5278C87.5089 81.4407 84.0462 82.7306 80.8219 82.7795C75.1719 82.8673 71.8968 81.2522 69.2866 80.0355L67.2477 89.5533C69.8764 90.7564 74.7198 91.8032 79.735 91.8569C91.5398 91.8569 99.258 86.0282 99.2931 77.0016ZM52.7742 47.7597L34.5755 91.1753H22.7043L13.748 56.5266C13.205 54.3959 12.7314 53.6128 11.0802 52.7124C8.37924 51.2458 3.9206 49.8738 0 49.0203L0.265608 47.7597H19.3774C21.8118 47.7597 24.0021 49.3797 24.5596 52.1842L29.2907 77.3092L40.9744 47.7597H52.7742Z" fill="#1434CB"/>
</svg>
