<svg width="139" height="139" viewBox="0 0 139 139" fill="none" xmlns="http://www.w3.org/2000/svg">
<path d="M88.2931 35.787H50.707V103.33H88.2931V35.787Z" fill="#FF5F00"/>
<path d="M53.0944 69.561C53.0884 63.0561 54.5625 56.6351 57.405 50.7841C60.2474 44.9331 64.3838 39.8055 69.5009 35.7894C63.1641 30.8085 55.5537 27.7109 47.5397 26.8508C39.5256 25.9906 31.4313 27.4026 24.1818 30.9253C16.9323 34.4479 10.8201 39.9391 6.5439 46.7713C2.2677 53.6035 0 61.501 0 69.561C0 77.6211 2.2677 85.5186 6.5439 92.3507C10.8201 99.1829 16.9323 104.674 24.1818 108.197C31.4313 111.719 39.5256 113.131 47.5397 112.271C55.5537 111.411 63.1641 108.314 69.5009 103.333C64.3838 99.3166 60.2474 94.1889 57.405 88.3379C54.5625 82.4869 53.0885 76.0659 53.0944 69.561Z" fill="#EB001B"/>
<path d="M138.999 69.561C138.999 77.6209 136.732 85.5184 132.456 92.3506C128.18 99.1828 122.068 104.674 114.818 108.197C107.569 111.719 99.4747 113.131 91.4608 112.271C83.4469 111.411 75.8367 108.314 69.5 103.333C74.6126 99.3125 78.7457 94.184 81.5877 88.334C84.4297 82.4839 85.9064 76.0649 85.9064 69.561C85.9064 63.0571 84.4297 56.6382 81.5877 50.7881C78.7457 44.938 74.6126 39.8095 69.5 35.7894C75.8367 30.8085 83.4469 27.7109 91.4608 26.8508C99.4747 25.9906 107.569 27.4026 114.818 30.9253C122.068 34.448 128.18 39.9393 132.456 46.7715C136.732 53.6037 138.999 61.5011 138.999 69.561Z" fill="#F79E1B"/>
<path d="M134.901 96.1774V94.7946H135.459V94.5129H134.039V94.7946H134.597V96.1774H134.901ZM137.658 96.1774V94.5101H137.223L136.722 95.657L136.222 94.5101H135.786V96.1774H136.094V94.9198L136.563 96.0041H136.882L137.351 94.917V96.1774H137.658Z" fill="#F79E1B"/>
</svg>
