<svg width="50" height="50" viewBox="0 0 50 50" fill="none" xmlns="http://www.w3.org/2000/svg">
<path d="M16.7849 3.40951L3.27604 17.1718C2.22627 18.2376 1.39667 19.4998 0.834617 20.8864C0.272564 22.273 -0.0109285 23.7568 0.000322201 25.2529C0.0115729 26.7491 0.317342 28.2284 0.900184 29.6064C1.48303 30.9844 2.33151 32.234 3.39719 33.2839L17.1147 46.7499C18.1832 47.7963 19.4473 48.6219 20.8348 49.1794C22.2223 49.7369 23.706 50.0156 25.2012 49.9993C26.6964 49.9831 28.1736 49.6722 29.5487 49.0846C30.9237 48.4971 32.1696 47.6443 33.2151 46.5749L46.7239 32.8125C47.7737 31.7467 48.6033 30.4845 49.1653 29.098C49.7274 27.7114 50.0109 26.2276 49.9997 24.7314C49.9884 23.2353 49.6826 21.7559 49.0998 20.3779C48.5169 19 47.6684 17.7504 46.6028 16.7005C44.8021 14.9325 41.8985 14.9954 40.1762 16.8397L30.4232 27.2831C29.3598 28.4219 29.4874 30.3654 31.0454 30.3487C31.9917 30.3386 32.8954 29.9534 33.5583 29.2777L42.6795 19.2718C43.0614 18.853 43.7147 18.8349 44.1191 19.2321C44.8512 19.9528 45.4341 20.8108 45.8344 21.757C46.2347 22.7032 46.4446 23.7191 46.4521 24.7465C46.4596 25.7739 46.2645 26.7927 45.8781 27.7447C45.4916 28.6967 44.9213 29.5631 44.1998 30.2944L30.691 44.0567C29.9738 44.7915 29.1187 45.3776 28.1748 45.7814C27.2309 46.1853 26.2166 46.3989 25.19 46.4102C24.1635 46.4214 23.1447 46.23 22.1922 45.847C21.2397 45.464 20.372 44.8968 19.6388 44.1779L5.92128 30.7118C4.44439 29.2554 3.60621 27.272 3.59106 25.1975C3.57591 23.123 4.38505 21.1274 5.84051 19.6495L19.3494 5.88722C20.0666 5.15243 20.9217 4.56638 21.8656 4.16254C22.8095 3.7587 23.8238 3.54504 24.8503 3.53378C25.8769 3.52253 26.8956 3.71391 27.8482 4.09695C28.8007 4.47999 29.6684 5.04718 30.4015 5.76607C30.5471 5.90422 30.5547 6.13368 30.4186 6.2812L19.9754 17.6027C19.3071 18.2729 18.9317 19.1809 18.9317 20.1276C18.9317 21.6614 20.8459 21.7286 21.8978 20.6123L32.9719 8.86014C34.4723 7.26793 34.4248 4.7685 32.865 3.23445C30.7064 1.13062 27.8025 -0.0321325 24.7888 0.000675897C21.7752 0.0334843 18.8973 1.25919 16.7849 3.40951ZM48.1913 8.23703L48.1891 8.10024C48.1271 4.14635 44.869 0.992767 40.9152 1.0597C39.9666 1.07741 39.0635 1.46951 38.4028 2.15061C38.0631 2.50082 37.8016 2.91282 37.6292 3.35949C37.3581 4.06189 38.0009 4.68474 38.7537 4.67157C39.9593 4.65047 40.5919 6.09452 39.7589 6.96642L18.959 28.7391C18.7933 28.9043 18.6619 29.1004 18.5722 29.3165C18.4825 29.5326 18.4364 29.7642 18.4364 29.9982C18.4364 30.2321 18.4825 30.4637 18.5722 30.6798C18.6619 30.8959 18.7933 31.0921 18.959 31.2573C19.1241 31.423 19.3203 31.5544 19.5362 31.6441C19.7522 31.7338 19.9838 31.7801 20.2177 31.7801C20.4516 31.7801 20.6832 31.7338 20.8991 31.6441C21.1151 31.5544 21.3113 31.423 21.4764 31.2573L42.2134 9.5526C43.0799 8.64569 44.6101 9.24556 44.6294 10.4997C44.6413 11.2707 45.2964 11.912 46.0068 11.6123C46.0136 11.6095 46.0203 11.6066 46.0271 11.6037C46.4622 11.417 46.8558 11.1457 47.1852 10.8056C47.5146 10.4654 47.7732 10.0632 47.9459 9.62227C48.1186 9.18134 48.202 8.71047 48.1913 8.23703Z" fill="#111135"/>
</svg>
