<svg width="32" height="32" viewBox="0 0 32 32" fill="none" xmlns="http://www.w3.org/2000/svg">
<path fill-rule="evenodd" clip-rule="evenodd" d="M0 16C0 7.16344 7.16344 0 16 0C24.8366 0 32 7.16344 32 16C32 24.8366 24.8366 32 16 32C7.16344 32 0 24.8366 0 16ZM12.427 12.585C13.1919 13.0274 14.1707 12.7661 14.6132 12.0012C16.1444 9.78464 19.1042 12.736 16.6775 14.1786C16.2413 14.4379 15.6708 14.8696 15.237 15.3983C14.8261 15.899 14.4488 16.5875 14.4044 17.4336C14.3988 17.4883 14.3959 17.5438 14.3959 17.6C14.3959 18.4837 15.1122 19.2 15.9959 19.2C17.2155 19.2 17.4477 18.5521 17.6819 17.8982C17.8326 17.4776 17.9842 17.0546 18.4001 16.8C19.7227 15.9904 20.8001 14.5564 20.8001 12.8C20.8001 10.149 18.6511 8 16.0001 8C14.2214 8 12.6708 8.96829 11.8432 10.3988C11.4008 11.1637 11.6621 12.1425 12.427 12.585ZM14.3959 22.4C14.3959 21.5163 15.1122 20.8 15.9959 20.8C16.8796 20.8 17.5959 21.5163 17.5959 22.4C17.5959 23.2837 16.8796 24 15.9959 24C15.1122 24 14.3959 23.2837 14.3959 22.4Z" fill="#111135"/>
</svg>
