<svg width="32" height="32" viewBox="0 0 32 32" fill="none" xmlns="http://www.w3.org/2000/svg">
<path d="M16 0C24.8366 0 32 7.16344 32 16C32 24.8366 24.8366 32 16 32C7.16344 32 0 24.8366 0 16C2.57703e-07 7.16344 7.16344 2.5772e-07 16 0ZM23.8594 10.9668C24.128 9.88965 23.4489 9.40129 22.7451 9.7207L7.33301 15.6631C6.28099 16.085 6.28748 16.6721 7.1416 16.9336L11.0967 18.168L20.2529 12.3916C20.6851 12.1297 21.0814 12.2706 20.7559 12.5596L13.3369 19.2549L13.0645 23.333C13.4643 23.333 13.6411 23.1505 13.8643 22.9336L15.7861 21.0645L19.7852 24.0186C20.5208 24.4243 21.0511 24.2137 21.2344 23.335L23.8594 10.9668Z" fill="#111135"/>
</svg>
