<svg width="32" height="32" viewBox="0 0 32 32" fill="none" xmlns="http://www.w3.org/2000/svg">
<path d="M16 0C24.8366 0 32 7.16344 32 16C32 24.8366 24.8366 32 16 32C7.16344 32 0 24.8366 0 16C2.57703e-07 7.16344 7.16344 2.5772e-07 16 0ZM15.999 7.46582C13.6833 7.46583 13.3923 7.47617 12.4824 7.51758C11.574 7.55918 10.9537 7.70304 10.4111 7.91406C9.84999 8.13199 9.37364 8.4231 8.89941 8.89746C8.42484 9.37168 8.13369 9.84825 7.91504 10.4092C7.70349 10.9519 7.55945 11.5724 7.51855 12.4805C7.47785 13.3907 7.4668 13.6818 7.4668 15.999C7.4668 18.3162 7.47733 18.6067 7.51855 19.5166C7.56033 20.425 7.70423 21.0453 7.91504 21.5879C8.13317 22.1491 8.42492 22.6253 8.89941 23.0996C9.37352 23.5742 9.8493 23.867 10.4102 24.085C10.953 24.296 11.5733 24.4398 12.4814 24.4814C13.3917 24.5229 13.6826 24.5332 16 24.5332C18.3174 24.5332 18.6075 24.5229 19.5176 24.4814C20.4259 24.4398 21.0469 24.2959 21.5898 24.085C22.1509 23.867 22.6264 23.5743 23.1006 23.0996C23.5752 22.6253 23.8673 22.1489 24.0859 21.5879C24.2956 21.0453 24.4388 20.4252 24.4814 19.5176C24.5223 18.6073 24.5332 18.3166 24.5332 15.999C24.5332 13.6818 24.5223 13.3907 24.4814 12.4805C24.4388 11.5722 24.2957 10.9517 24.0859 10.4092C23.8673 9.84801 23.5752 9.37172 23.1006 8.89746C22.6261 8.42303 22.1514 8.13179 21.5898 7.91406C21.0459 7.70304 20.425 7.55918 19.5166 7.51758C18.6065 7.47616 18.3166 7.46582 15.999 7.46582Z" fill="#111135"/>
<path d="M15.2354 9.00488C15.4625 9.00453 15.7163 9.00488 16.001 9.00488C18.2791 9.00488 18.5498 9.01284 19.4492 9.05371C20.2812 9.09176 20.7334 9.23086 21.0342 9.34766C21.4323 9.50232 21.7162 9.68769 22.0146 9.98633C22.3133 10.285 22.4983 10.5696 22.6533 10.9678C22.7701 11.2682 22.9094 11.72 22.9473 12.5518C22.9881 13.4512 22.9971 13.7218 22.9971 15.999C22.9971 18.2761 22.9882 18.5468 22.9473 19.4463C22.9092 20.278 22.7701 20.7299 22.6533 21.0303C22.4987 21.4282 22.3131 21.7114 22.0146 22.0098C21.716 22.3084 21.4325 22.4938 21.0342 22.6484C20.7337 22.7658 20.2812 22.9043 19.4492 22.9424C18.5499 22.9833 18.2791 22.9922 16.001 22.9922C13.7227 22.9922 13.4523 22.9833 12.5527 22.9424C11.7212 22.904 11.2697 22.7652 10.9688 22.6484C10.5705 22.4938 10.286 22.3084 9.9873 22.0098C9.6887 21.7111 9.50364 21.4276 9.34863 21.0293C9.23184 20.7289 9.09256 20.2772 9.05469 19.4453C9.0138 18.5458 9.00586 18.2754 9.00586 15.9971C9.00586 13.7186 9.01381 13.4491 9.05469 12.5498C9.09273 11.7178 9.23183 11.2656 9.34863 10.9648C9.50328 10.5667 9.68869 10.282 9.9873 9.9834C10.2859 9.68485 10.5706 9.49971 10.9688 9.34473C11.2695 9.22743 11.7212 9.08902 12.5527 9.05078C13.3399 9.01523 13.6453 9.00471 15.2354 9.00293V9.00488ZM16.001 11.6172C13.5811 11.6174 11.6191 13.58 11.6191 16C11.6193 18.4198 13.5812 20.3806 16.001 20.3809C18.421 20.3809 20.3827 18.42 20.3828 16C20.3828 13.5799 18.4211 11.6172 16.001 11.6172ZM20.5566 10.4219C19.9913 10.4219 19.5323 10.8798 19.5322 11.4453C19.5322 12.0107 19.9913 12.4697 20.5566 12.4697C21.1218 12.4695 21.5801 12.0105 21.5801 11.4453C21.58 10.8802 21.1218 10.4221 20.5566 10.4219Z" fill="#111135"/>
<path d="M16.0007 13.1562C17.5716 13.1562 18.8452 14.4297 18.8452 16.0007C18.8452 17.5716 17.5716 18.8452 16.0007 18.8452C14.4297 18.8452 13.1562 17.5716 13.1562 16.0007C13.1562 14.4297 14.4297 13.1562 16.0007 13.1562Z" fill="#111135"/>
</svg>
