<svg width="32" height="32" viewBox="0 0 32 32" fill="none" xmlns="http://www.w3.org/2000/svg">
<path d="M16 0C24.8366 0 32 7.16344 32 16C32 24.8366 24.8366 32 16 32C7.16344 32 0 24.8366 0 16C2.57703e-07 7.16344 7.16344 2.5772e-07 16 0ZM23.9023 13.4404C23.8454 13.4713 17.5867 16.8623 16.2227 16.8623C14.9725 16.862 8.54304 13.4408 8.54297 13.4404L8.5332 21.1201C8.5332 21.8267 9.10727 22.4004 9.81445 22.4004H22.6309C23.3393 22.4004 23.9131 21.8267 23.9131 21.1201L23.9023 13.4404ZM9.81445 9.60059C9.10663 9.6006 8.5332 10.1743 8.5332 10.8809V11.4502C8.5332 11.4502 14.9724 15.1023 16.2227 15.1025C17.5267 15.1025 23.8443 11.5532 23.9023 11.5205L23.9131 10.8809C23.9131 10.1743 23.3393 9.60059 22.6309 9.60059H9.81445Z" fill="#111135"/>
</svg>
