<svg width="25" height="24" viewBox="0 0 25 24" fill="none" xmlns="http://www.w3.org/2000/svg">
<path d="M11.4264 0.67149C11.7377 -0.224071 13.0042 -0.224071 13.3155 0.67149L15.6692 7.44271C15.8065 7.83779 16.1752 8.10566 16.5934 8.11418L23.7605 8.26023C24.7085 8.27955 25.0998 9.48409 24.3443 10.0569L18.6318 14.3878C18.2985 14.6405 18.1577 15.0739 18.2788 15.4743L20.3547 22.3357C20.6292 23.2432 19.6046 23.9877 18.8263 23.4461L12.9422 19.3516C12.5988 19.1127 12.1431 19.1127 11.7998 19.3516L5.9156 23.4461C5.13736 23.9877 4.11271 23.2432 4.38727 22.3357L6.46313 15.4743C6.58424 15.0739 6.44342 14.6405 6.11012 14.3878L0.397627 10.0569C-0.357905 9.48409 0.0334749 8.27955 0.981399 8.26023L8.14854 8.11418C8.56671 8.10566 8.93541 7.83778 9.07273 7.44271L11.4264 0.67149Z" fill="#111135"/>
</svg>
